<mxfile host="app.diagrams.net" modified="2022-04-07T00:49:04.893Z" agent="5.0 (Windows NT 10.0; Win64; x64) AppleWebKit/537.36 (KHTML, like Gecko) Chrome/99.0.4844.84 Safari/537.36" etag="Cj9UF3NXXAHqFdSliC_G" version="17.4.0" type="github">
  <diagram id="C5RBs43oDa-KdzZeNtuy" name="Page-1">
    <mxGraphModel dx="1726" dy="2686" grid="1" gridSize="10" guides="1" tooltips="1" connect="1" arrows="1" fold="1" page="1" pageScale="1" pageWidth="827" pageHeight="1169" math="0" shadow="0">
      <root>
        <mxCell id="WIyWlLk6GJQsqaUBKTNV-0" />
        <mxCell id="uOqwjrXB-CaHXfy_sAdY-13" parent="WIyWlLk6GJQsqaUBKTNV-0" />
        <mxCell id="uOqwjrXB-CaHXfy_sAdY-17" style="edgeStyle=none;curved=1;rounded=0;orthogonalLoop=1;jettySize=auto;html=1;exitX=0.5;exitY=1;exitDx=0;exitDy=0;endArrow=open;startSize=14;endSize=14;sourcePerimeterSpacing=8;targetPerimeterSpacing=8;" edge="1" parent="uOqwjrXB-CaHXfy_sAdY-13" source="uOqwjrXB-CaHXfy_sAdY-14">
          <mxGeometry relative="1" as="geometry">
            <mxPoint x="120" y="-1020" as="targetPoint" />
          </mxGeometry>
        </mxCell>
        <mxCell id="uOqwjrXB-CaHXfy_sAdY-14" value="Be" style="ellipse;fillColor=#000000;strokeColor=none;hachureGap=4;" vertex="1" parent="uOqwjrXB-CaHXfy_sAdY-13">
          <mxGeometry x="105" y="-1090" width="30" height="30" as="geometry" />
        </mxCell>
        <mxCell id="uOqwjrXB-CaHXfy_sAdY-15" value="Begin" style="text;strokeColor=none;fillColor=none;html=1;align=center;verticalAlign=middle;whiteSpace=wrap;rounded=0;hachureGap=4;" vertex="1" parent="uOqwjrXB-CaHXfy_sAdY-13">
          <mxGeometry x="135" y="-1110" width="60" height="30" as="geometry" />
        </mxCell>
        <mxCell id="uOqwjrXB-CaHXfy_sAdY-22" style="edgeStyle=none;curved=1;rounded=0;orthogonalLoop=1;jettySize=auto;html=1;exitX=0.5;exitY=1;exitDx=0;exitDy=0;endArrow=open;startSize=14;endSize=14;sourcePerimeterSpacing=8;targetPerimeterSpacing=8;entryX=0.5;entryY=0;entryDx=0;entryDy=0;" edge="1" parent="uOqwjrXB-CaHXfy_sAdY-13" source="uOqwjrXB-CaHXfy_sAdY-18">
          <mxGeometry relative="1" as="geometry">
            <mxPoint x="120" y="-880" as="targetPoint" />
          </mxGeometry>
        </mxCell>
        <mxCell id="uOqwjrXB-CaHXfy_sAdY-18" value="Enter Username &lt;br&gt;and Password" style="html=1;dashed=0;rounded=1;absoluteArcSize=1;arcSize=20;verticalAlign=middle;align=center;hachureGap=4;" vertex="1" parent="uOqwjrXB-CaHXfy_sAdY-13">
          <mxGeometry x="50" y="-1020" width="140" height="80" as="geometry" />
        </mxCell>
        <mxCell id="uOqwjrXB-CaHXfy_sAdY-26" value="True" style="edgeStyle=none;curved=1;rounded=0;orthogonalLoop=1;jettySize=auto;html=1;exitX=0.5;exitY=1;exitDx=0;exitDy=0;entryX=0.5;entryY=0;entryDx=0;entryDy=0;endArrow=open;startSize=14;endSize=14;sourcePerimeterSpacing=8;targetPerimeterSpacing=8;" edge="1" parent="uOqwjrXB-CaHXfy_sAdY-13" source="uOqwjrXB-CaHXfy_sAdY-23" target="uOqwjrXB-CaHXfy_sAdY-24">
          <mxGeometry x="-0.5" y="21" relative="1" as="geometry">
            <mxPoint as="offset" />
          </mxGeometry>
        </mxCell>
        <mxCell id="uOqwjrXB-CaHXfy_sAdY-31" value="False" style="edgeStyle=elbowEdgeStyle;rounded=0;orthogonalLoop=1;jettySize=auto;html=1;exitX=1;exitY=0.5;exitDx=0;exitDy=0;endArrow=open;startSize=14;endSize=14;sourcePerimeterSpacing=8;targetPerimeterSpacing=8;entryX=1;entryY=0.5;entryDx=0;entryDy=0;" edge="1" parent="uOqwjrXB-CaHXfy_sAdY-13" source="uOqwjrXB-CaHXfy_sAdY-23" target="uOqwjrXB-CaHXfy_sAdY-18">
          <mxGeometry x="0.0296" y="-20" relative="1" as="geometry">
            <mxPoint x="188.29443875810307" y="-924.0702831798021" as="targetPoint" />
            <Array as="points">
              <mxPoint x="241" y="-910" />
            </Array>
            <mxPoint as="offset" />
          </mxGeometry>
        </mxCell>
        <mxCell id="uOqwjrXB-CaHXfy_sAdY-23" value="Validate" style="rhombus;hachureGap=4;" vertex="1" parent="uOqwjrXB-CaHXfy_sAdY-13">
          <mxGeometry x="88" y="-880" width="64" height="60" as="geometry" />
        </mxCell>
        <mxCell id="uOqwjrXB-CaHXfy_sAdY-33" value="Terminate" style="edgeStyle=elbowEdgeStyle;rounded=0;orthogonalLoop=1;jettySize=auto;html=1;exitX=0.5;exitY=1;exitDx=0;exitDy=0;endArrow=open;startSize=14;endSize=14;sourcePerimeterSpacing=8;targetPerimeterSpacing=8;entryX=0.5;entryY=0;entryDx=0;entryDy=0;" edge="1" parent="uOqwjrXB-CaHXfy_sAdY-13" source="uOqwjrXB-CaHXfy_sAdY-24" target="uOqwjrXB-CaHXfy_sAdY-34">
          <mxGeometry y="31" relative="1" as="geometry">
            <mxPoint x="120" y="-698" as="targetPoint" />
            <mxPoint as="offset" />
          </mxGeometry>
        </mxCell>
        <mxCell id="uOqwjrXB-CaHXfy_sAdY-24" value="User Authentication" style="rounded=1;whiteSpace=wrap;html=1;hachureGap=4;" vertex="1" parent="uOqwjrXB-CaHXfy_sAdY-13">
          <mxGeometry x="60" y="-780" width="120" height="60" as="geometry" />
        </mxCell>
        <mxCell id="uOqwjrXB-CaHXfy_sAdY-34" value="" style="ellipse;html=1;shape=endState;fillColor=#000000;strokeColor=#000000;hachureGap=4;" vertex="1" parent="uOqwjrXB-CaHXfy_sAdY-13">
          <mxGeometry x="105" y="-660" width="30" height="30" as="geometry" />
        </mxCell>
      </root>
    </mxGraphModel>
  </diagram>
</mxfile>
